<svg width="24" height="24" viewBox="0 0 24 24" fill="none" xmlns="http://www.w3.org/2000/svg">
<path d="M4.9015 2.00048C4.6363 2.01331 4.38704 2.13094 4.20854 2.3275C4.03004 2.52407 3.93692 2.78348 3.94964 3.04869C3.96236 3.3139 4.07989 3.56321 4.27639 3.74178C4.47288 3.92036 4.73225 4.01359 4.99747 4.00097H19.0009C19.1323 4.00103 19.2624 3.9752 19.3838 3.92496C19.5052 3.87472 19.6155 3.80105 19.7085 3.70816C19.8014 3.61527 19.8751 3.50499 19.9254 3.3836C19.9757 3.26222 20.0016 3.13212 20.0016 3.00073C20.0016 2.86934 19.9757 2.73923 19.9254 2.61785C19.8751 2.49646 19.8014 2.38618 19.7085 2.29329C19.6155 2.2004 19.5052 2.12674 19.3838 2.07649C19.2624 2.02625 19.1323 2.00042 19.0009 2.00048H4.99747C4.9655 1.99894 4.93347 1.99894 4.9015 2.00048H4.9015Z" fill="#00001D"/>
<path d="M4.99744 10.999C4.73216 10.999 4.47774 11.1044 4.29016 11.292C4.10257 11.4796 3.99719 11.734 3.99719 11.9993C3.99719 12.2646 4.10257 12.519 4.29016 12.7066C4.47774 12.8941 4.73216 12.9995 4.99744 12.9995H19.0009C19.2662 12.9995 19.5206 12.8941 19.7082 12.7066C19.8957 12.519 20.0011 12.2646 20.0011 11.9993C20.0011 11.734 19.8957 11.4796 19.7082 11.292C19.5206 11.1044 19.2662 10.999 19.0009 10.999H4.99744Z" fill="#F25F3A"/>
<path d="M4.99744 19.9976C4.73216 19.9976 4.47774 20.1029 4.29016 20.2905C4.10258 20.4781 3.99719 20.7325 3.99719 20.9978C3.99719 21.2631 4.10258 21.5175 4.29016 21.7051C4.47774 21.8927 4.73216 21.9981 4.99744 21.9981H19.0009C19.2662 21.9981 19.5206 21.8927 19.7082 21.7051C19.8957 21.5175 20.0011 21.2631 20.0011 20.9978C20.0011 20.7325 19.8957 20.4781 19.7082 20.2905C19.5206 20.1029 19.2662 19.9976 19.0009 19.9976H4.99744Z" fill="#00001D"/>
</svg>
